<svg width="303" height="216" viewBox="0 0 303 216" fill="none" xmlns="http://www.w3.org/2000/svg">
<g style="mix-blend-mode:multiply" opacity="0.3">
<path d="M265.294 201.089C265.294 203.613 205.414 205.661 145.903 205.661C86.3927 205.661 49.8032 203.62 49.8032 201.089C49.8032 198.557 86.4035 196.519 145.911 196.519C205.418 196.519 265.294 198.574 265.294 201.089Z" fill="#434190"/>
</g>
<path d="M230.866 81.2347C224.55 79.5221 215.236 83.5057 213.556 90.5016C211.877 97.4974 210.104 109.746 214.77 111.452C216.836 112.21 224.861 111.76 224.861 111.76L235.557 108.446C235.557 108.446 251.682 86.8835 230.866 81.2347Z" fill="#E4837A"/>
<path d="M224.406 89.9164C226.003 94.8375 223.977 101.925 227.676 95.8528C229.466 92.8846 232.037 93.7578 233.312 96.2454C234.877 99.2915 231.024 101.755 231.342 102.781C231.661 103.806 234.726 108.308 235.557 108.447C236.388 108.585 245.007 96.1913 241.702 87.6183C238.089 78.2397 221.452 77.1432 217.484 84.5316C218.902 84.5485 222.827 85.0494 224.406 89.9164Z" fill="#293657"/>
<path d="M229.61 118.641C236.123 119.023 255.252 123.379 257.258 129.81C258.604 138.576 251.65 127.281 257.258 155.948C257.358 157.478 257.455 159.052 257.551 160.66C257.551 160.66 197.876 160.961 197.751 160.402C197.246 157.695 195.52 153.823 195.799 151.156C196.494 144.614 198.778 138.714 202.384 131.735C204.275 125.982 217.685 121.162 221.889 120.401C222.401 120.313 224.074 118.316 229.61 118.641Z" fill="#4D5CB0"/>
<path d="M223.927 110.227L220.507 121.335C226.594 125.085 235.987 119.782 235.987 119.782L235.557 108.447L223.927 110.227Z" fill="#E4837A"/>
<path d="M203.416 129.877L181.569 160.7L202.671 160.474L203.416 129.877Z" fill="#4D5CB0"/>
<path d="M253.806 125.921C253.806 125.921 264.549 131.259 269.312 145.66C270.744 149.938 271.944 155.194 272.961 160.474L254.311 160.68L252.191 148.455L253.806 125.921Z" fill="#4D5CB0"/>
<path d="M212.4 101.607L209.579 99.8094L213.203 92.6849L212.4 101.607Z" fill="#E4837A"/>
<path d="M297.392 161.442H158.74C157.255 161.44 155.83 160.881 154.78 159.889C153.729 158.896 153.138 157.549 153.136 156.145V64.7627C153.138 63.3585 153.729 62.0123 154.78 61.0193C155.83 60.0264 157.255 59.4677 158.74 59.4659H297.392C298.878 59.4677 300.303 60.0263 301.354 61.0191C302.405 62.012 302.997 63.3582 303 64.7627V156.145C302.997 157.55 302.405 158.896 301.354 159.889C300.303 160.882 298.878 161.44 297.392 161.442ZM158.74 61.3951C157.8 61.396 156.899 61.7493 156.235 62.3775C155.57 63.0057 155.196 63.8574 155.195 64.7458V156.145C155.196 157.034 155.57 157.885 156.235 158.513C156.899 159.142 157.8 159.495 158.74 159.496H297.392C298.332 159.495 299.233 159.142 299.898 158.513C300.563 157.885 300.936 157.034 300.937 156.145V64.7627C300.936 63.8744 300.563 63.0226 299.898 62.3944C299.233 61.7662 298.332 61.4129 297.392 61.412L158.74 61.3951Z" fill="#2A3756"/>
<path d="M301.97 70.7264H154.165V64.746C154.165 63.5989 154.647 62.4987 155.505 61.6875C156.364 60.8764 157.528 60.4207 158.741 60.4207H297.393C298.607 60.4207 299.771 60.8764 300.629 61.6875C301.488 62.4987 301.97 63.5989 301.97 64.746V70.7264Z" fill="#2A3756"/>
<path d="M163.202 65.1384C163.202 65.5233 163.082 65.8995 162.855 66.2196C162.629 66.5396 162.308 66.789 161.931 66.9363C161.555 67.0836 161.141 67.1222 160.742 67.0471C160.342 66.972 159.976 66.7866 159.688 66.5145C159.4 66.2423 159.203 65.8955 159.124 65.518C159.045 65.1405 159.085 64.7492 159.241 64.3936C159.397 64.038 159.661 63.7341 160 63.5202C160.338 63.3064 160.736 63.1923 161.143 63.1923C161.689 63.1932 162.212 63.3985 162.598 63.7632C162.984 64.128 163.202 64.6225 163.202 65.1384Z" fill="#7C8AEF"/>
<path opacity="0.6" d="M169.379 65.1384C169.379 65.5233 169.259 65.8995 169.032 66.2196C168.806 66.5396 168.484 66.789 168.108 66.9363C167.732 67.0836 167.318 67.1222 166.919 67.0471C166.519 66.972 166.152 66.7866 165.864 66.5145C165.576 66.2423 165.38 65.8955 165.301 65.518C165.221 65.1405 165.262 64.7492 165.418 64.3936C165.574 64.038 165.838 63.7341 166.176 63.5202C166.515 63.3064 166.913 63.1923 167.32 63.1923C167.866 63.1923 168.39 63.3973 168.776 63.7623C169.162 64.1272 169.379 64.6222 169.379 65.1384Z" fill="#7C8AEF"/>
<path opacity="0.3" d="M175.556 65.1384C175.556 65.5233 175.435 65.8995 175.209 66.2196C174.983 66.5396 174.661 66.789 174.285 66.9363C173.909 67.0836 173.495 67.1222 173.095 67.0471C172.696 66.972 172.329 66.7866 172.041 66.5145C171.753 66.2423 171.557 65.8955 171.478 65.518C171.398 65.1405 171.439 64.7492 171.595 64.3936C171.751 64.038 172.014 63.7341 172.353 63.5202C172.692 63.3064 173.09 63.1923 173.497 63.1923C174.043 63.1923 174.567 63.3973 174.953 63.7623C175.339 64.1272 175.556 64.6222 175.556 65.1384Z" fill="#7C8AEF"/>
<path d="M255.507 154.233C253.335 154.234 251.211 153.625 249.405 152.485C247.598 151.345 246.19 149.724 245.358 147.827C244.526 145.931 244.308 143.843 244.732 141.83C245.155 139.816 246.201 137.966 247.736 136.514C249.272 135.062 251.229 134.073 253.36 133.672C255.49 133.271 257.699 133.477 259.706 134.262C261.713 135.048 263.428 136.378 264.635 138.085C265.842 139.792 266.486 141.799 266.486 143.853C266.483 146.604 265.326 149.243 263.268 151.189C261.209 153.135 258.418 154.229 255.507 154.233ZM255.507 134.772C253.606 134.771 251.747 135.304 250.166 136.301C248.585 137.299 247.353 138.718 246.625 140.378C245.897 142.038 245.706 143.865 246.077 145.627C246.448 147.39 247.363 149.009 248.707 150.279C250.052 151.55 251.765 152.415 253.629 152.766C255.494 153.116 257.427 152.936 259.183 152.248C260.94 151.56 262.441 150.395 263.496 148.901C264.552 147.406 265.115 145.65 265.115 143.853C265.111 141.445 264.097 139.138 262.296 137.436C260.496 135.733 258.054 134.776 255.507 134.772Z" fill="#283558"/>
<path d="M282.405 154.233C280.233 154.233 278.11 153.624 276.304 152.484C274.498 151.343 273.09 149.722 272.259 147.825C271.428 145.928 271.21 143.841 271.634 141.828C272.058 139.814 273.104 137.964 274.64 136.513C276.176 135.061 278.132 134.072 280.263 133.672C282.393 133.271 284.601 133.477 286.608 134.262C288.615 135.048 290.33 136.379 291.537 138.086C292.744 139.793 293.388 141.8 293.388 143.853C293.384 146.605 292.226 149.243 290.167 151.189C288.108 153.135 285.317 154.229 282.405 154.233ZM282.405 134.772C280.504 134.771 278.646 135.304 277.064 136.301C275.483 137.299 274.251 138.718 273.523 140.378C272.795 142.038 272.605 143.865 272.975 145.627C273.346 147.39 274.261 149.009 275.606 150.279C276.95 151.55 278.663 152.415 280.528 152.766C282.392 153.116 284.325 152.936 286.082 152.248C287.838 151.56 289.339 150.395 290.395 148.901C291.451 147.406 292.014 145.65 292.013 143.853C292.009 141.445 290.996 139.138 289.195 137.436C287.394 135.733 284.952 134.776 282.405 134.772Z" fill="#283558"/>
<path d="M258.414 140.285H250.028V147.423H258.414V140.285Z" fill="#283558"/>
<path d="M261.437 147.078L258.418 144.732V142.976L261.437 140.627V147.078Z" fill="#283558"/>
<path d="M284.491 143.138C284.49 143.66 284.27 144.161 283.879 144.53C283.489 144.899 282.959 145.107 282.406 145.108C281.853 145.108 281.323 144.901 280.932 144.531C280.54 144.162 280.32 143.661 280.319 143.138V138.958C280.319 138.435 280.539 137.933 280.93 137.563C281.322 137.193 281.853 136.985 282.406 136.985C282.96 136.986 283.49 137.194 283.88 137.564C284.271 137.934 284.491 138.436 284.491 138.958V143.138Z" fill="#283558"/>
<path d="M282.407 147.474C281.213 147.47 280.069 147.02 279.226 146.221C278.382 145.423 277.908 144.341 277.906 143.213H279.277C279.277 144 279.608 144.755 280.197 145.311C280.786 145.868 281.585 146.181 282.418 146.181C283.251 146.181 284.049 145.868 284.638 145.311C285.227 144.755 285.558 144 285.558 143.213H286.93C286.929 143.773 286.811 144.328 286.583 144.845C286.355 145.363 286.022 145.833 285.602 146.229C285.182 146.624 284.684 146.938 284.135 147.151C283.587 147.365 283 147.475 282.407 147.474Z" fill="#283558"/>
<path d="M283.091 146.828H281.719V150.723H283.091V146.828Z" fill="#283558"/>
<path d="M191.223 127.225C191.223 127.225 184.906 122.066 184.151 122.374C183.395 122.682 187.184 133.503 187.184 133.503L192.602 132.826L191.223 127.225Z" fill="#26334C"/>
<path d="M262.006 186.683L257.584 173.978L268.986 164.325C268.986 164.325 266.26 179.928 267.793 181.214C269.326 182.5 275.112 189.191 275.793 190.318C276.208 190.995 275.481 199.179 274.851 205.261C274.472 208.197 273.937 211.112 273.247 213.997C272.692 216.329 270.353 216.153 270.353 213.997V193.642L262.006 186.683Z" fill="#26334C"/>
<path d="M205.06 195.957C205.228 192.911 201.594 171.457 201.594 171.457L211.62 180.571C211.62 180.571 210.943 194.079 210.374 195.771C206.793 206.453 204.759 214.904 201.11 213.222C200.512 212.691 204.945 198.022 205.06 195.957Z" fill="#26334C"/>
<path d="M172.083 147.884C172.699 147.396 171.678 145.921 171.105 145.176C171.463 144.936 171.854 144.706 172.23 144.499C173.662 143.687 179.109 140.37 181.211 135.828C181.963 134.207 188.942 130.267 188.942 130.267C188.942 130.267 189.407 119.877 190.349 119.708C190.349 119.708 191.423 121.159 194.51 124.832C196.345 127.055 197.866 129.496 199.033 132.092C202.331 137.209 212.755 147.745 214.366 148.242C217.797 149.292 237.001 149.718 246.021 148.27C255.041 146.821 265.583 150.977 268.813 154.023C272.043 157.069 269.494 167.534 267.453 170.75C265.412 173.965 262.518 179.918 264.559 182.974C266.6 186.031 268.305 191.822 268.305 193.429C268.305 194.516 265.039 201.999 262.679 207.123C261.541 209.597 258.683 214.931 257.201 214.231C255.109 213.215 258.053 208.044 258.876 205.729C260.33 201.63 262.246 196.059 262.203 195.132C262.081 192.458 255.879 183.794 252.818 181.218C249.756 178.642 248.205 167.497 248.205 167.497C248.205 167.497 225.517 177.502 222.283 177.823C221.864 180.236 221.041 192.84 220.994 196.34C220.958 198.919 213.396 219.131 209.514 214.833C208.554 213.77 215.601 205.566 214.943 194.035C214.728 190.312 210.327 179.715 210.327 179.715C210.327 179.715 203.999 176.703 200.87 172.533C197.872 168.536 196.712 165.108 195.713 152.175C195.355 147.437 192.705 145.45 192.351 145.443C188.809 148.997 184.663 148.094 182.109 148.994C178.686 150.205 175.879 150.764 174.468 150.811C171.317 150.92 170.497 150.605 169.605 148.93C170.382 148.696 171.553 148.29 172.083 147.884Z" fill="#2A3756"/>
<path d="M269.67 155.303C269.67 155.303 278.672 170.922 283.438 172.53C288.204 174.137 296.039 175.265 298.922 173.494C295.699 177.035 286.675 177.925 280.713 175.349C272.535 171.819 267.987 161.361 267.987 161.361L269.67 155.303Z" fill="#2A3756"/>
<path d="M171.106 145.183C171.679 145.921 172.699 147.396 172.084 147.89C171.55 148.307 170.383 148.703 169.606 148.933C169.488 148.713 169.384 148.487 169.294 148.256C168.846 147.044 169.849 146.026 171.106 145.183Z" fill="#151C28"/>
<path d="M187.55 139.872C187.141 140.6 185.362 142.049 184.327 141.961C184.089 141.964 183.853 141.92 183.634 141.831C183.416 141.743 183.219 141.612 183.058 141.447C182.896 141.282 182.773 141.087 182.696 140.874C182.619 140.661 182.591 140.436 182.612 140.212C182.634 139.988 182.705 139.771 182.821 139.575C182.937 139.378 183.095 139.207 183.285 139.073C183.475 138.938 183.694 138.842 183.926 138.792C184.157 138.742 184.398 138.739 184.631 138.782C185.666 138.87 187.55 139.872 187.55 139.872Z" fill="#151C28"/>
<path d="M188.942 130.267L193.92 130.924C193.92 130.924 193.293 124.832 189.694 121.657C189.043 122.882 188.942 130.267 188.942 130.267Z" fill="#212E42"/>
<path d="M85.7952 33.9837C91.8469 33.0529 99.9289 34.8467 100.76 44.3708C101.343 51.0451 101.723 62.5694 97.1967 63.6626C95.195 64.15 87.8077 62.8977 87.8077 62.8977L88.8819 75.1565L75.0096 69.7412L78.2646 58.7246C78.2646 58.7246 65.8425 37.0568 85.7952 33.9837Z" fill="#E3847C"/>
<path d="M97.1434 36.1534L87.0453 47.8639C85.7132 44.9261 83.246 45.4676 81.7778 47.6405C79.9874 50.3143 83.2567 52.9881 82.8521 53.9053C82.4474 54.8225 79.0743 58.6775 78.2865 58.7181C77.4987 58.7587 63.2646 51.1841 71.5437 35.7032C75.3501 28.5754 89.0757 27.0794 97.1434 36.1534Z" fill="#293657"/>
<path d="M88.614 22.9267C89.3051 27.4586 86.7376 30.6943 82.3761 31.2866C78.0146 31.8789 75.5724 29.1881 74.8849 24.6562C74.1974 20.1243 75.9807 16.4114 80.3386 15.8157C84.6965 15.22 87.9265 18.3948 88.614 22.9267Z" fill="#293657"/>
<path d="M36.9299 110.515C45.2375 78.9817 59.7437 73.624 59.7437 73.624C64.6316 70.5 72.198 69.752 75.0054 69.0819C80.2049 71.7049 85.6944 71.16 88.6987 69.7588C93.447 70.0363 98.9365 72.0366 103.251 75.4381C103.251 75.4381 118.105 84.732 125.095 128.409C125.711 132.23 125.138 163.229 125.138 163.229L116.927 171.691L105.747 171.352L105.626 170.648L53.3447 171.285C53.2158 171.992 53.1441 172.374 53.1441 172.374L45.2662 171.677C45.2662 171.677 38.4016 171.43 36.9335 163.216C34.0043 146.831 35.5584 115.724 36.9299 110.515Z" fill="#7C8AEF"/>
<path d="M88.6987 69.7689C99.6848 101.6 96.9347 141.46 96.9347 141.46L75.0054 69.092C75.0054 69.092 83.9898 71.3868 88.6987 69.7689Z" fill="white"/>
<path d="M69.2507 91.8564L70.683 91.5789C68.8532 83.3071 68.2767 72.9402 75.2272 69.1292L75.7357 67.3557C68.7494 70.324 66.4003 78.8226 69.2507 91.8564Z" fill="#2A3756"/>
<path d="M100.136 94.4761L101.569 94.3678C101.175 90.6052 100.396 86.8874 99.2448 83.2665C96.7775 75.5396 92.9926 70.2902 88.2407 67.8601L88.4162 69.857C98.1455 75.983 100.122 94.2662 100.136 94.4761Z" fill="#2A3756"/>
<path d="M69.5554 122.016L70.5939 121.065C69.5219 120.02 68.7898 118.707 68.4848 117.281L65.1187 101.712C64.6501 99.7568 64.9239 97.7081 65.8922 95.9245C66.3633 95.0925 67.0263 94.3713 67.832 93.8142C68.6378 93.257 69.5658 92.8782 70.5474 92.7058C74.7191 91.9003 78.2821 94.3473 79.2131 98.6592L82.5791 114.228C82.925 115.814 82.7242 117.462 82.0062 118.932L83.3204 119.501C84.1643 117.767 84.4001 115.823 83.9936 113.954L80.6276 98.385C79.5246 93.2879 75.2562 90.4009 70.243 91.3689C69.0558 91.584 67.934 92.0456 66.9586 92.7205C65.9833 93.3954 65.1787 94.2666 64.6031 95.2713C63.472 97.3381 63.1462 99.7151 63.6828 101.986L67.0488 117.555C67.4171 119.237 68.2868 120.785 69.5554 122.016Z" fill="#2A3756"/>
<path d="M97.9267 97.2108C97.7119 99.2246 98.5784 100.988 99.864 101.147C101.15 101.306 102.371 99.7932 102.571 97.7861C102.772 95.7791 101.919 94.009 100.637 93.8499C99.3555 93.6909 98.1452 95.1936 97.9267 97.2108Z" fill="#2A3756"/>
<path d="M80.8496 119.938C80.8489 120.293 80.9597 120.64 81.168 120.936C81.3762 121.232 81.6726 121.462 82.0195 121.598C82.3665 121.734 82.7484 121.77 83.1168 121.701C83.4853 121.632 83.8238 121.461 84.0895 121.21C84.3551 120.959 84.5359 120.639 84.6091 120.291C84.6822 119.942 84.6443 119.581 84.5002 119.253C84.3561 118.926 84.1123 118.645 83.7996 118.449C83.487 118.252 83.1196 118.147 82.7439 118.148C82.2415 118.148 81.7597 118.336 81.4044 118.672C81.0492 119.008 80.8496 119.463 80.8496 119.938Z" fill="#2A3756"/>
<path d="M68.9219 122.341C68.9219 122.694 69.0325 123.039 69.2399 123.332C69.4473 123.625 69.742 123.854 70.0868 123.989C70.4316 124.124 70.8111 124.159 71.1771 124.09C71.5432 124.021 71.8795 123.852 72.1434 123.602C72.4073 123.353 72.587 123.035 72.6599 122.689C72.7327 122.343 72.6953 121.984 72.5525 121.658C72.4096 121.332 72.1678 121.054 71.8574 120.858C71.5471 120.662 71.1822 120.557 70.809 120.557C70.561 120.557 70.3154 120.603 70.0863 120.692C69.8571 120.782 69.6489 120.913 69.4735 121.079C69.2982 121.244 69.1592 121.441 69.0646 121.658C68.9699 121.874 68.9214 122.107 68.9219 122.341Z" fill="#2A3756"/>
<path d="M144.26 102.202H5.60768C4.12163 102.2 2.69693 101.642 1.6458 100.649C0.594671 99.6562 0.00284199 98.31 0 96.9055V5.52319C0.00189505 4.11805 0.593323 2.77097 1.64455 1.77738C2.69579 0.783795 4.12102 0.224814 5.60768 0.223022H144.26C145.746 0.225709 147.17 0.785085 148.22 1.77858C149.271 2.77207 149.862 4.11863 149.864 5.52319V96.9055C149.862 98.3097 149.271 99.6559 148.22 100.649C147.17 101.642 145.745 102.2 144.26 102.202ZM5.60768 2.1522C4.6671 2.15399 3.76558 2.50794 3.10049 3.13656C2.4354 3.76518 2.0609 4.61727 2.05901 5.50627V96.8885C2.0609 97.7772 2.43551 98.629 3.10071 99.2571C3.7659 99.8851 4.66743 100.238 5.60768 100.239H144.26C145.199 100.238 146.101 99.885 146.765 99.2569C147.43 98.6287 147.804 97.7769 147.805 96.8885V5.50627C147.804 4.61758 147.43 3.76549 146.765 3.13677C146.101 2.50805 145.2 2.15399 144.26 2.1522H5.60768Z" fill="#2A3756"/>
<path d="M148.832 11.4866H1.03076V5.5061C1.03076 4.35892 1.51291 3.25873 2.37115 2.44755C3.22938 1.63637 4.39341 1.18066 5.60714 1.18066H144.259C145.472 1.18156 146.635 1.63767 147.493 2.44875C148.35 3.25983 148.832 4.35951 148.832 5.5061V11.4866Z" fill="#2A3756"/>
<path d="M10.0555 5.89923C10.0555 6.28413 9.93475 6.6604 9.7085 6.98043C9.48226 7.30047 9.16069 7.5499 8.78446 7.6972C8.40822 7.84449 7.99423 7.88303 7.59482 7.80794C7.19541 7.73285 6.82853 7.54751 6.54058 7.27534C6.25262 7.00317 6.05651 6.65641 5.97706 6.2789C5.89762 5.90139 5.93839 5.5101 6.09423 5.15449C6.25007 4.79889 6.51399 4.49495 6.85259 4.2811C7.19119 4.06726 7.58928 3.95312 7.99651 3.95312C8.54259 3.95312 9.0663 4.15816 9.45244 4.52313C9.83858 4.88809 10.0555 5.38309 10.0555 5.89923Z" fill="#7C8AEF"/>
<path opacity="0.6" d="M16.2425 5.89923C16.2425 6.28413 16.1218 6.6604 15.8955 6.98043C15.6693 7.30047 15.3477 7.5499 14.9715 7.6972C14.5952 7.84449 14.1812 7.88303 13.7818 7.80794C13.3824 7.73285 13.0155 7.54751 12.7276 7.27534C12.4396 7.00317 12.2435 6.65641 12.1641 6.2789C12.0846 5.90139 12.1254 5.5101 12.2812 5.15449C12.4371 4.79889 12.701 4.49495 13.0396 4.2811C13.3782 4.06726 13.7763 3.95312 14.1835 3.95312C14.7296 3.95312 15.2533 4.15816 15.6395 4.52313C16.0256 4.88809 16.2425 5.38309 16.2425 5.89923Z" fill="#7C8AEF"/>
<path opacity="0.3" d="M22.4235 5.89926C22.4242 6.28499 22.3039 6.66224 22.0777 6.98328C21.8515 7.30432 21.5296 7.55473 21.1527 7.70281C20.7759 7.85088 20.3611 7.88996 19.9607 7.81512C19.5604 7.74028 19.1926 7.55488 18.9037 7.28237C18.6149 7.00986 18.4181 6.66249 18.3382 6.28423C18.2584 5.90597 18.299 5.51381 18.455 5.15738C18.611 4.80096 18.8754 4.49628 19.2146 4.28192C19.5539 4.06755 19.9528 3.95313 20.3609 3.95313C20.9074 3.95312 21.4314 4.15806 21.8182 4.52293C22.2049 4.88781 22.4226 5.3828 22.4235 5.89926Z" fill="#7C8AEF"/>
<path d="M102.37 94.9933C100.198 94.9933 98.0748 94.3845 96.2687 93.2439C94.4626 92.1033 93.0549 90.4821 92.2237 88.5853C91.3925 86.6885 91.175 84.6014 91.5987 82.5878C92.0225 80.5742 93.0685 78.7246 94.6044 77.2729C96.1404 75.8212 98.0973 74.8325 100.228 74.432C102.358 74.0315 104.566 74.237 106.573 75.0227C108.58 75.8084 110.295 77.1388 111.502 78.8459C112.709 80.5529 113.353 82.5599 113.353 84.6129C113.349 87.3649 112.191 90.0031 110.132 91.949C108.073 93.8949 105.282 94.9897 102.37 94.9933ZM102.37 75.5322C100.469 75.5315 98.6104 76.0638 97.0293 77.0617C95.4482 78.0597 94.2158 79.4784 93.4879 81.1384C92.76 82.7984 92.5694 84.6252 92.9401 86.3877C93.3108 88.1501 94.2263 89.7691 95.5706 91.0397C96.915 92.3104 98.6278 93.1756 100.493 93.526C102.357 93.8764 104.29 93.6962 106.046 93.0083C107.803 92.3203 109.304 91.1554 110.36 89.661C111.415 88.1666 111.979 86.4099 111.978 84.6129C111.977 82.2039 110.965 79.8937 109.163 78.1893C107.362 76.4849 104.919 75.5256 102.37 75.5221V75.5322Z" fill="#283558"/>
<path d="M129.27 94.9933C127.098 94.9933 124.974 94.3845 123.168 93.2439C121.362 92.1033 119.954 90.4821 119.123 88.5853C118.292 86.6885 118.074 84.6014 118.498 82.5878C118.922 80.5742 119.968 78.7246 121.504 77.2729C123.04 75.8212 124.997 74.8325 127.127 74.432C129.258 74.0315 131.466 74.237 133.473 75.0227C135.479 75.8084 137.195 77.1388 138.401 78.8459C139.608 80.5529 140.252 82.5599 140.252 84.6129C140.248 87.3649 139.09 90.0031 137.031 91.949C134.973 93.8949 132.181 94.9897 129.27 94.9933ZM129.27 75.5322C127.369 75.5322 125.51 76.0651 123.93 77.0634C122.349 78.0617 121.117 79.4806 120.39 81.1407C119.663 82.8008 119.472 84.6275 119.844 86.3898C120.215 88.152 121.13 89.7706 122.475 91.0409C123.819 92.3112 125.532 93.1761 127.397 93.5262C129.261 93.8764 131.194 93.696 132.95 93.0079C134.706 92.3199 136.207 91.155 137.263 89.6607C138.318 88.1664 138.882 86.4097 138.881 84.6129C138.88 82.2033 137.867 79.8926 136.065 78.1881C134.263 76.4836 131.819 75.5247 129.27 75.5221V75.5322Z" fill="#283558"/>
<path d="M105.281 81.0458H96.895V88.1838H105.281V81.0458Z" fill="#283558"/>
<path d="M108.304 87.8381L105.282 85.4893V83.7362L108.304 81.3873V87.8381Z" fill="#283558"/>
<path d="M131.354 83.8989C131.354 84.4213 131.134 84.9223 130.743 85.2917C130.352 85.6611 129.822 85.8687 129.27 85.8687C128.717 85.8678 128.188 85.6599 127.797 85.2907C127.406 84.9215 127.186 84.421 127.186 83.8989V79.7156C127.186 79.1935 127.406 78.693 127.797 78.3238C128.188 77.9546 128.717 77.7467 129.27 77.7458C129.822 77.7458 130.352 77.9534 130.743 78.3228C131.134 78.6922 131.354 79.1932 131.354 79.7156V83.8989Z" fill="#283558"/>
<path d="M129.269 88.2343C128.073 88.2334 126.926 87.7838 126.08 86.9842C125.234 86.1846 124.758 85.1005 124.757 83.9697H126.132C126.118 84.3677 126.189 84.7644 126.34 85.136C126.491 85.5077 126.72 85.8468 127.013 86.1331C127.306 86.4194 127.657 86.6471 128.045 86.8026C128.433 86.9581 128.85 87.0382 129.271 87.0382C129.692 87.0382 130.109 86.9581 130.497 86.8026C130.885 86.6471 131.236 86.4194 131.529 86.1331C131.822 85.8468 132.051 85.5077 132.202 85.136C132.353 84.7644 132.424 84.3677 132.41 83.9697H133.781C133.78 85.1005 133.305 86.1846 132.459 86.9842C131.613 87.7838 130.466 88.2334 129.269 88.2343Z" fill="#283558"/>
<path d="M129.957 87.5881H128.585V91.4836H129.957V87.5881Z" fill="#283558"/>
</svg>
